<svg xmlns="http://www.w3.org/2000/svg" viewBox="0 0 24 24">
  <mask id="captain-mark">
    <rect width="24" height="24" fill="#000"/>
    <path d="M2.1 16.2c3.2-.1 5.2-4.2 6.3-9.3 1.2.9 2.2 1.3 3.6 1.3s2.4-.4 3.6-1.3c1.1 5.1 3.1 9.2 6.3 9.3-1.3 2-3.2 3.3-5.6 3.8a15 15 0 0 0-8.6 0c-2.4-.5-4.3-1.8-5.6-3.8Z" fill="#fff"/>
    <path d="M10.2 12.2v4.1m0-2.1 3.6-2.1" fill="none" stroke="#000" stroke-linecap="round" stroke-width="1.15"/>
    <circle cx="10.2" cy="11.2" r="1.25" fill="#000"/>
    <circle cx="10.2" cy="17.2" r="1.25" fill="#000"/>
    <circle cx="14.6" cy="11.6" r="1.25" fill="#000"/>
  </mask>
  <rect width="24" height="24" fill="#000" mask="url(#captain-mark)"/>
</svg>
